# xmcd
#
# Track frame offsets: 
#        150
#        16595
#        33515
#        51371
#        66132
#        96461
#        110278
#        124055
#        136004
#        159168
#        179764
#        200113
#        216969
#        233723
#        250014
#        269335
#        284229
#        302695
#        322578
#        337989
#
# Disc length: 4748 seconds
#
# Revision: 0
# Processed by: cddbd v1.5.1PL0 Copyright (c) Steve Scherf et al.
# Submitted via: ExactAudioCopy v0.95b3
#
DISCID=20128a14
DTITLE=Various Artist - Country Album 2004 - CD2
DYEAR=2004
DGENRE=Country
TTITLE0=Lee Ann Rimes The Moonlight - Can't Fight
TTITLE1=Willie Nelson - Just Dropped In
TTITLE2=Jamie O'Neal - There is no Arizona
TTITLE3=Johnny Cash - I Dreamed About Mama Last Night
TTITLE4=Don Henley - Miss Ghost
TTITLE5=Mark Knopfler and His Band - Lost on the River
TTITLE6=Meredith Edwards - A Rose ia a Rose
TTITLE7=Linda G.Lewis and Van Morrison - Think Twice Before You Go
TTITLE8=Lucinda Williams - Cold, Cold Heart
TTITLE9=Garth Brooks - Why Ain't Running
TTITLE10=Reba McEntire - I'll Be
TTITLE11=Beck - You Cheatin' Heart
TTITLE12=Faith Hill - There You'll Be
TTITLE13=Shania Twain - Don't Be Stupid (You Know I Love You)
TTITLE14=K.D.Lang - The Consequences Of Falling
TTITLE15=Chely Wright - Single White Female
TTITLE16=Martina McBride - Life #9
TTITLE17=Trisha Yearwood - I'll Still Love You More
TTITLE18=Tamara Walker - Didn't We Love
TTITLE19=Mark Wills - Wish You Were Here
EXTD=
EXTT0=
EXTT1=
EXTT2=
EXTT3=
EXTT4=
EXTT5=
EXTT6=
EXTT7=
EXTT8=
EXTT9=
EXTT10=
EXTT11=
EXTT12=
EXTT13=
EXTT14=
EXTT15=
EXTT16=
EXTT17=
EXTT18=
EXTT19=
PLAYORDER=
